<svg xmlns="http://www.w3.org/2000/svg" xmlns:xlink="http://www.w3.org/1999/xlink" width="500" zoomAndPan="magnify" viewBox="0 0 375 374.999991" height="500" preserveAspectRatio="xMidYMid meet" version="1.2"><defs><clipPath id="f6755df12a"><path d="M 75 0 L 300 0 C 341.421875 0 375 33.578125 375 75 L 375 300 C 375 341.421875 341.421875 375 300 375 L 75 375 C 33.578125 375 0 341.421875 0 300 L 0 75 C 0 33.578125 33.578125 0 75 0 Z M 75 0 "/></clipPath><clipPath id="cfe000a8cd"><path d="M 46 107 L 163 107 L 163 268 L 46 268 Z M 46 107 "/></clipPath><clipPath id="7567b36cf6"><path d="M 44.058594 264.082031 L 138.582031 96.414062 L 164.234375 110.875 L 69.710938 278.542969 Z M 44.058594 264.082031 "/></clipPath><clipPath id="8933d98eab"><path d="M 118.90625 131.554688 L 46.914062 259.257812 C 45.78125 261.265625 46.023438 263.765625 47.519531 265.519531 C 49.015625 267.273438 51.445312 267.902344 53.609375 267.101562 L 68.070312 261.730469 C 77.152344 258.355469 84.742188 251.878906 89.5 243.441406 L 161.492188 115.734375 C 162.625 113.730469 162.378906 111.226562 160.882812 109.476562 C 159.386719 107.722656 156.957031 107.089844 154.796875 107.890625 L 140.332031 113.265625 C 131.253906 116.636719 123.660156 123.117188 118.90625 131.554688 Z M 118.90625 131.554688 "/></clipPath><clipPath id="0bec492195"><path d="M 124 108 L 209 108 L 209 267 L 124 267 Z M 124 108 "/></clipPath><clipPath id="cfb9391c12"><path d="M 161.90625 106.28125 L 225.929688 243.308594 L 171.121094 268.917969 L 107.09375 131.890625 Z M 161.90625 106.28125 "/></clipPath><clipPath id="cc2eb6ed66"><path d="M 205.75 200.113281 L 165.355469 113.660156 C 164.089844 110.957031 161.449219 109.160156 158.46875 108.980469 C 155.488281 108.800781 152.648438 110.265625 151.070312 112.800781 L 128.769531 148.566406 C 123.820312 156.507812 123.222656 166.410156 127.183594 174.886719 L 167.578125 261.339844 C 168.84375 264.042969 171.484375 265.839844 174.464844 266.019531 C 177.445312 266.199219 180.285156 264.734375 181.863281 262.199219 L 204.164062 226.433594 C 209.113281 218.492188 209.710938 208.589844 205.75 200.113281 Z M 205.75 200.113281 "/></clipPath><clipPath id="7beecdee5d"><path d="M 173 109 L 270 109 L 270 255 L 173 255 Z M 173 109 "/></clipPath><clipPath id="3a463e37de"><path d="M 172.507812 253.054688 L 258.914062 105.132812 L 270.457031 111.878906 L 184.050781 259.800781 Z M 172.507812 253.054688 "/></clipPath><clipPath id="c6277dd568"><path d="M 241.214844 135.433594 L 174.039062 250.429688 C 173.320312 251.667969 173.570312 253.242188 174.640625 254.191406 C 175.710938 255.140625 177.300781 255.203125 178.445312 254.339844 L 182.21875 251.488281 C 190.121094 245.519531 196.761719 238.042969 201.753906 229.496094 L 268.929688 114.496094 C 269.648438 113.261719 269.398438 111.6875 268.328125 110.738281 C 267.257812 109.785156 265.667969 109.722656 264.527344 110.585938 L 260.75 113.4375 C 252.847656 119.40625 246.207031 126.882812 241.214844 135.433594 Z M 241.214844 135.433594 "/></clipPath><clipPath id="c48b8ee229"><path d="M 237 110 L 316 110 L 316 262 L 237 262 Z M 237 110 "/></clipPath><clipPath id="587cc0b676"><path d="M 270.480469 107.738281 L 332.390625 240.238281 L 282.433594 263.578125 L 220.527344 131.082031 Z M 270.480469 107.738281 "/></clipPath><clipPath id="9106a811c5"><path d="M 312.464844 197.589844 L 273.824219 114.890625 C 272.597656 112.269531 270.011719 110.550781 267.121094 110.4375 C 264.230469 110.328125 261.515625 111.839844 260.09375 114.359375 L 241.539062 147.195312 C 236.90625 155.390625 236.523438 165.316406 240.507812 173.84375 L 279.148438 256.546875 C 280.375 259.167969 282.960938 260.882812 285.851562 260.996094 C 288.742188 261.109375 291.453125 259.59375 292.878906 257.074219 L 311.433594 224.238281 C 316.0625 216.042969 316.449219 206.117188 312.464844 197.589844 Z M 312.464844 197.589844 "/></clipPath></defs><g id="aa164b184b"><g clip-rule="nonzero" clip-path="url(#f6755df12a)"><rect x="0" width="375" y="0" height="374.999991" style="fill:#ad46ff;fill-opacity:1;stroke:none;"/></g><g clip-rule="nonzero" clip-path="url(#cfe000a8cd)"><g clip-rule="nonzero" clip-path="url(#7567b36cf6)"><g clip-rule="nonzero" clip-path="url(#8933d98eab)"><path style=" stroke:none;fill-rule:nonzero;fill:#ffffff;fill-opacity:1;" d="M 39.546875 272.324219 L 143.296875 88.285156 L 168.847656 102.691406 L 65.097656 286.726562 Z M 39.546875 272.324219 "/></g></g></g><g clip-rule="nonzero" clip-path="url(#0bec492195)"><g clip-rule="nonzero" clip-path="url(#cfb9391c12)"><g clip-rule="nonzero" clip-path="url(#cc2eb6ed66)"><path style=" stroke:none;fill-rule:nonzero;fill:#ffffff;fill-opacity:1;" d="M 159.003906 100.070312 L 228.730469 249.304688 L 173.921875 274.914062 L 104.195312 125.679688 Z M 159.003906 100.070312 "/></g></g></g><g clip-rule="nonzero" clip-path="url(#7beecdee5d)"><g clip-rule="nonzero" clip-path="url(#3a463e37de)"><g clip-rule="nonzero" clip-path="url(#c6277dd568)"><path style=" stroke:none;fill-rule:nonzero;fill:#ffffff;fill-opacity:1;" d="M 166.476562 263.382812 L 264.945312 94.804688 L 276.492188 101.550781 L 178.019531 270.128906 Z M 166.476562 263.382812 "/></g></g></g><g clip-rule="nonzero" clip-path="url(#c48b8ee229)"><g clip-rule="nonzero" clip-path="url(#587cc0b676)"><g clip-rule="nonzero" clip-path="url(#9106a811c5)"><path style=" stroke:none;fill-rule:nonzero;fill:#ffffff;fill-opacity:1;" d="M 267.472656 101.300781 L 335.492188 246.871094 L 285.535156 270.214844 L 217.519531 124.640625 Z M 267.472656 101.300781 "/></g></g></g></g></svg>